<svg width="56" height="84" viewBox="0 0 56 84" fill="none" xmlns="http://www.w3.org/2000/svg">
<g clip-path="url(#clip0)">
<path d="M21.6106 40.9969L20.0923 14.313L25.6606 14.8927L26.5139 34.1744L35.9013 34.1767L36.3644 40.5713L21.6106 40.9969Z" fill="#2B4B80"/>
<circle cx="23.1621" cy="9.2161" r="5.73445" transform="rotate(59.293 23.1621 9.2161)" stroke="#2B4B80" stroke-width="1.43361"/>
<path d="M28.2333 17.0547L34.0115 16.9577L35.4195 31.9618L29.6412 32.0588L28.2333 17.0547Z" fill="#F65C97"/>
<path d="M7.50673 67.8049L5.98846 41.121L11.5568 41.7007L12.4101 60.9824L21.7975 60.9847L22.2605 67.3793L7.50673 67.8049Z" fill="#2B4B80"/>
<circle cx="9.05826" cy="36.0241" r="5.73445" transform="rotate(59.293 9.05826 36.0241)" stroke="#2B4B80" stroke-width="1.43361"/>
<path d="M14.1295 43.8627L19.9077 43.7657L21.3157 58.7698L15.5374 58.8668L14.1295 43.8627Z" fill="#F65C97"/>
<path d="M36.8997 43.3597L37.7459 70.0733L32.1939 69.3537L31.8261 50.0566L22.4418 49.818L22.1398 43.4138L36.8997 43.3597Z" fill="#2B4B80"/>
<circle cx="34.5488" cy="75.0913" r="5.73445" transform="rotate(-119.265 34.5488 75.0913)" stroke="#2B4B80" stroke-width="1.43361"/>
<path d="M29.6765 67.1276L23.8976 67.0791L22.8677 52.0444L28.6466 52.0928L29.6765 67.1276Z" fill="#F65C97"/>
<path d="M50.6436 15.9085L50.9274 42.634L45.3918 41.7977L45.4302 22.4972L36.053 22.0612L35.8859 15.6521L50.6436 15.9085Z" fill="#2B4B80"/>
<circle cx="47.6255" cy="47.5837" r="5.73445" transform="rotate(-118.059 47.6255 47.5837)" stroke="#2B4B80" stroke-width="1.43361"/>
<path d="M42.9218 39.5192L37.1452 39.3491L36.432 24.296L42.2086 24.4661L42.9218 39.5192Z" fill="#F65C97"/>
</g>
<defs>
<clipPath id="clip0">
<rect width="84" height="56" fill="white" transform="translate(56) rotate(90)"/>
</clipPath>
</defs>
</svg>
