<svg height="480pt" viewBox="-56 0 480 480.162" width="480pt" xmlns="http://www.w3.org/2000/svg"><g fill="#ffc477"><path d="m197.980469 176.320312c-4.5625-.078124-9.203125-.160156-13.921875-.160156s-9.359375.082032-13.917969.160156c-72.960937 1.523438-130.082031 15.203126-130.082031 31.839844 0 17.683594 64.480468 32 144 32 79.519531 0 144-14.316406 144-32 0-16.636718-57.121094-30.316406-130.078125-31.839844zm0 0"/><path d="m120.058594 400.160156v72h128v-72zm0 0"/><path d="m328.058594 232.160156c17.671875 0 32 14.328125 32 32 0 17.675782-14.328125 32-32 32h-.238282c.160157-2.636718.238282-5.359375.238282-8zm0 0"/><path d="m328.058594 232.160156v56c0 2.640625-.078125 5.363282-.238282 8-4.40625 76.175782-67.460937 135.691406-143.761718 135.691406-76.300782 0-139.355469-59.515624-143.757813-135.691406-.160156-2.636718-.242187-5.359375-.242187-8v-80c0 17.683594 64.480468 32 144 32 79.519531 0 144-14.316406 144-32zm0 0"/></g><path d="m251.980469 149.363281c.9375 2.445313.609375 5.199219-.878907 7.359375-1.484374 2.15625-3.941406 3.445313-6.5625 3.4375h-28.480468l-8-16h8v-48h4.878906c6.6875.011719 12.671875 4.152344 15.042969 10.402344zm0 0" fill="#1e81ce"/><path d="m184.058594 144.160156h-32v-76.957031c-.109375-15.894531 4.636718-31.4375 13.601562-44.5625 5.359375-7.839844 11.917969-14.480469 18.398438-14.480469 6.480468 0 13.039062 6.640625 18.402344 14.480469 8.960937 13.125 13.707031 28.667969 13.597656 44.5625v76.957031zm0 0" fill="#3d9ae2"/><path d="m200.058594 144.160156-8 24h-16l-8-24zm0 0" fill="#1e81ce"/><path d="m197.980469 176.320312c-2.820313-5.039062-8.144531-8.160156-13.921875-8.160156-5.773438 0-11.097656 3.121094-13.917969 8.160156-1.386719 2.378907-2.105469 5.089844-2.082031 7.839844 0 8.800782 7.199218 32 16 32 8.800781 0 16-23.199218 16-32 .023437-2.75-.695313-5.460937-2.078125-7.839844zm0 0" fill="#ff5023"/><path d="m160.058594 144.160156-8 16h-28.480469c-2.621094.007813-5.074219-1.28125-6.5625-3.4375-1.488281-2.160156-1.816406-4.914062-.875-7.359375l16-42.800781c2.367187-6.25 8.351563-10.390625 15.039063-10.402344h4.878906v48zm0 0" fill="#1e81ce"/><path d="m40.300781 296.160156h-.242187c-17.671875 0-32-14.324218-32-32 0-17.671875 14.328125-32 32-32v56c0 2.640625.082031 5.363282.242187 8zm0 0" fill="#ffc477"/><path d="m123.601562 168.160156h28.457032c3.03125.003906 5.804687-1.710937 7.160156-4.421875l4.160156-8.320312 3.878906 11.648437c-4.601562 4.496094-7.199218 10.660156-7.199218 17.09375 0 9.320313 7.480468 40 24 40 16.519531 0 24-30.679687 24-40 0-6.4375-2.597656-12.601562-7.199219-17.101562l3.878906-11.648438 4.160157 8.328125c1.355468 2.710938 4.128906 4.425781 7.160156 4.421875h28.457031c5.242187 0 10.152344-2.570312 13.140625-6.878906s3.679688-9.808594 1.84375-14.71875l-16.058594-42.800781c-3.136718-8.300781-10.585937-14.199219-19.382812-15.359375v-21.207032c.140625-17.527343-5.089844-34.671874-14.984375-49.136718-16.675781-24.082032-33.355469-24.078125-50.03125.007812-9.898438 14.460938-15.125 31.605469-14.984375 49.128906v21.207032c-8.789063 1.15625-16.234375 7.046875-19.382813 15.335937l-16.058593 42.824219c-1.832032 4.910156-1.144532 10.410156 1.84375 14.71875 2.988281 4.308594 7.898437 6.878906 13.140624 6.878906zm60.457032 39.328125c-4.585938-6.976562-7.339844-15-8-23.328125 0-4.417968 3.582031-8 8-8 4.417968 0 8 3.582032 8 8-.660156 8.328125-3.410156 16.351563-8 23.328125zm-2.230469-47.328125-2.671875-8h9.808594l-2.671875 8zm46.632813-50.804687 16.054687 42.804687h-23.511719l-.695312-1.390625c2.300781-1.410156 3.71875-3.90625 3.75-6.609375v-39.285156c2.019531.824219 3.609375 2.445312 4.402344 4.480469zm-68.402344-42.160157c-.128906-14.261718 4.109375-28.21875 12.144531-40 6.015625-8.714843 10.257813-11.035156 11.855469-11.035156 1.601562 0 5.839844 2.320313 11.855468 11 8.035157 11.785156 12.273438 25.742188 12.144532 40v69h-16v-48h-16v48h-16zm-20.40625 42.160157c.796875-2.035157 2.386718-3.652344 4.40625-4.480469v39.285156c.03125 2.703125 1.449218 5.199219 3.753906 6.609375l-.699219 1.390625h-23.511719zm0 0"/><path d="m184.058594 57.105469 12.425781 6.214843 7.152344-14.316406-16-8c-2.253907-1.125-4.902344-1.125-7.152344 0l-16 8 7.152344 14.316406zm0 0"/><path d="m232.058594 184.160156h16v32h-16zm0 0"/><path d="m120.058594 184.160156h16v32h-16zm0 0"/><path d="m264.058594 48.160156h16v32h-16zm0 0"/><path d="m264.058594 96.160156h16v16h-16zm0 0"/><path d="m88.058594 48.160156h16v32h-16zm0 0"/><path d="m88.058594 96.160156h16v16h-16zm0 0"/><path d="m184.058594 352.160156c13.253906 0 24-10.742187 24-24v-48h-16v48c0 4.421875-3.582032 8-8 8-4.417969 0-8-3.578125-8-8v-48h-16v48c0 13.257813 10.746094 24 24 24zm0 0"/><path d="m256.058594 264.160156c-13.253906 0-24 10.746094-24 24h16c0-4.417968 3.582031-8 8-8 4.417968 0 8 3.582032 8 8h16c0-13.253906-10.746094-24-24-24zm0 0"/><path d="m112.058594 264.160156c-13.253906 0-24 10.746094-24 24h16c0-4.417968 3.582031-8 8-8 4.417968 0 8 3.582032 8 8h16c0-13.253906-10.746094-24-24-24zm0 0"/><path d="m368.058594 264.160156c-.023438-19-13.386719-35.371094-32-39.199218v-16.800782c0-15.109375-20.496094-25.972656-62.648438-33.214844l-2.703125 15.769532c38.105469 6.542968 48.664063 15.101562 49.367188 17.304687-2.398438 8.429688-51.199219 24.140625-136 24.140625s-133.535157-15.679687-136-23.832031v-.0625c.800781-2.519531 11.402343-11.03125 49.351562-17.550781l-2.703125-15.769532c-42.167968 7.242188-62.664062 18.105469-62.664062 33.214844v16.800782c-18.757813 3.824218-32.171875 20.417968-31.9765628 39.5625.1953128 19.144531 13.9414068 35.460937 32.7773438 38.902343 5.210937 50.851563 35.601563 95.695313 80.902344 119.375h-1.703125v49.359375c0 4.421875 3.582031 8 8 8h128c4.417968 0 8-3.578125 8-8v-49.359375h-1.703125c45.300781-23.679687 75.691406-68.515625 80.902343-119.367187 18.972657-3.472656 32.765626-19.984375 32.800782-39.273438zm-352 0c.042968-10.132812 6.445312-19.148437 16-22.527344v45.058594c-9.554688-3.378906-15.957032-12.394531-16-22.53125zm224 200h-112v-34.820312c35.9375 14.429687 76.0625 14.429687 112 0zm-56-40c-75.074219-.082031-135.914063-60.921875-136-136v-60.335937c29.601562 15.617187 93.746094 20.335937 136 20.335937 42.257812 0 106.402344-4.71875 136-20.335937v60.335937c-.082032 75.078125-60.921875 135.917969-136 136zm152-137.46875v-45.058594c9.585937 3.339844 16.007812 12.378907 16.007812 22.527344 0 10.152344-6.421875 19.191406-16.007812 22.53125zm0 0"/><path d="m184.058594 376.160156c-21.679688 0-40-10.988281-40-24h-16c0 22.402344 24.601562 40 56 40 31.402344 0 56-17.597656 56-40h-16c0 13.011719-18.320313 24-40 24zm0 0"/><path d="m320.058594 72.160156h16v40h-16zm0 0"/><path d="m320.058594 128.160156h16v16h-16zm0 0"/><path d="m32.058594 72.160156h16v40h-16zm0 0"/><path d="m32.058594 128.160156h16v16h-16zm0 0"/></svg>