<svg width="603" height="435" viewBox="0 0 603 435" fill="none" xmlns="http://www.w3.org/2000/svg">
<path fill-rule="evenodd" clip-rule="evenodd" d="M61.2137 210.397C42.9481 213.261 28.3592 215.547 20.3119 278.161C5.13237 396.268 123.533 454.808 279.376 421.943C344.635 408.182 376.534 414.589 399.222 419.147C430.715 425.473 444.46 428.234 505.046 368.539C561.672 312.745 558.597 296.799 555.479 280.623C552.856 267.022 550.203 253.259 582.967 215.513C597.388 198.9 602.986 187.124 603 178.278V435H0V0L428.573 0C370.606 0.00343087 303.2 11.9285 250.029 34.7582C179.474 65.0524 158.401 70.5327 147.472 84.1524C138.024 95.9277 136.157 113.787 116.449 159.027C96.4789 204.87 77.4023 207.86 61.2137 210.397ZM428.623 0C514.056 0.00505697 578.968 25.9108 547.549 80.9739C521.396 126.807 548.301 139.055 572.946 150.274C588.406 157.312 602.977 163.945 603 178.21V0L428.623 0Z" fill="white"/>
</svg>
