<svg id="Layer_3" enable-background="new 0 0 64 64" height="512" viewBox="0 0 64 64" width="512" xmlns="http://www.w3.org/2000/svg"><path d="m41 27v-4c0-3.314-2.686-6-6-6h-6c-3.314 0-6 2.686-6 6v4z" fill="#f5b953"/><path d="m35 17h-6c-3.314 0-6 2.686-6 6v.622c1.268.243 2.609.378 4 .378 5.47 0 10.195-2.021 12.498-4.961-1.099-1.248-2.704-2.039-4.498-2.039z" fill="#f9d18b"/><path d="m29 17v1c0 1.657 1.343 3 3 3 1.657 0 3-1.343 3-3v-1" fill="#db9b7c"/><path d="m32 5c-2.761 0-5 2.239-5 5v2c0 2.761 2.239 5 5 5 2.761 0 5-2.239 5-5v-2c0-2.761-2.239-5-5-5z" fill="#efbe9a"/><path d="m26 57v-4c0-3.314-2.686-6-6-6h-6c-3.314 0-6 2.686-6 6v4z" fill="#669e4f"/><path d="m20 47h-6c-3.314 0-6 2.686-6 6v.622c1.268.243 2.609.378 4 .378 5.47 0 10.195-2.021 12.498-4.961-1.099-1.248-2.704-2.039-4.498-2.039z" fill="#78b75b"/><path d="m14 47v1c0 1.657 1.343 3 3 3 1.657 0 3-1.343 3-3v-1" fill="#db9b7c"/><path d="m17 35c-2.761 0-5 2.239-5 5v2c0 2.761 2.239 5 5 5 2.761 0 5-2.239 5-5v-2c0-2.761-2.239-5-5-5z" fill="#efbe9a"/><path d="m56 57v-4c0-3.314-2.686-6-6-6h-6c-3.314 0-6 2.686-6 6v4z" fill="#2d4d83"/><path d="m50 47h-6c-3.314 0-6 2.686-6 6v.622c1.268.243 2.609.378 4 .378 5.47 0 10.195-2.021 12.498-4.961-1.099-1.248-2.704-2.039-4.498-2.039z" fill="#4472b2"/><path d="m44 47v1c0 1.657 1.343 3 3 3 1.657 0 3-1.343 3-3v-1" fill="#db9b7c"/><path d="m47 35c-2.761 0-5 2.239-5 5v2c0 2.761 2.239 5 5 5 2.761 0 5-2.239 5-5v-2c0-2.761-2.239-5-5-5z" fill="#efbe9a"/><path d="m26 58h-18c-.552 0-1-.447-1-1v-4c0-3.859 3.14-7 7-7h6c3.86 0 7 3.141 7 7v4c0 .553-.448 1-1 1zm-17-2h16v-3c0-2.757-2.243-5-5-5h-6c-2.757 0-5 2.243-5 5z"/><path d="m17 52c-2.206 0-4-1.794-4-4v-1h2v1c0 1.103.897 2 2 2s2-.897 2-2v-1h2v1c0 2.206-1.794 4-4 4z"/><path d="m11 52h2v5h-2z"/><path d="m21 52h2v5h-2z"/><path d="m17 48c-3.309 0-6-2.691-6-6v-2c0-3.309 2.691-6 6-6s6 2.691 6 6v2c0 3.309-2.691 6-6 6zm0-12c-2.206 0-4 1.794-4 4v2c0 2.206 1.794 4 4 4s4-1.794 4-4v-2c0-2.206-1.794-4-4-4z"/><path d="m17 63c-8.822 0-16-7.178-16-16 0-2.225.448-4.378 1.332-6.4l1.833.8c-.773 1.768-1.165 3.653-1.165 5.6 0 7.72 6.28 14 14 14s14-6.28 14-14-6.28-14-14-14c-1.735 0-3.43.313-5.036.933l-.72-1.865c1.837-.709 3.774-1.068 5.756-1.068 8.822 0 16 7.178 16 16s-7.178 16-16 16z"/><path d="m56 58h-18c-.552 0-1-.447-1-1v-4c0-3.859 3.14-7 7-7h6c3.86 0 7 3.141 7 7v4c0 .553-.448 1-1 1zm-17-2h16v-3c0-2.757-2.243-5-5-5h-6c-2.757 0-5 2.243-5 5z"/><path d="m47 52c-2.206 0-4-1.794-4-4v-1h2v1c0 1.103.897 2 2 2s2-.897 2-2v-1h2v1c0 2.206-1.794 4-4 4z"/><path d="m41 52h2v5h-2z"/><path d="m51 52h2v5h-2z"/><path d="m47 48c-3.309 0-6-2.691-6-6v-2c0-3.309 2.691-6 6-6s6 2.691 6 6v2c0 3.309-2.691 6-6 6zm0-12c-2.206 0-4 1.794-4 4v2c0 2.206 1.794 4 4 4s4-1.794 4-4v-2c0-2.206-1.794-4-4-4z"/><path d="m47 63c-8.822 0-16-7.178-16-16s7.178-16 16-16c2.225 0 4.378.448 6.4 1.332l-.8 1.832c-1.769-.772-3.653-1.164-5.6-1.164-7.72 0-14 6.28-14 14s6.28 14 14 14 14-6.28 14-14c0-1.602-.268-3.172-.796-4.667l1.886-.666c.603 1.709.91 3.503.91 5.333 0 8.822-7.178 16-16 16z"/><path d="m41 28h-18c-.552 0-1-.447-1-1v-4c0-3.859 3.14-7 7-7h6c3.86 0 7 3.141 7 7v4c0 .553-.448 1-1 1zm-17-2h16v-3c0-2.757-2.243-5-5-5h-6c-2.757 0-5 2.243-5 5z"/><path d="m32 22c-2.206 0-4-1.794-4-4v-1h2v1c0 1.103.897 2 2 2s2-.897 2-2v-1h2v1c0 2.206-1.794 4-4 4z"/><path d="m26 22h2v5h-2z"/><path d="m36 22h2v5h-2z"/><path d="m32 18c-3.309 0-6-2.691-6-6v-2c0-3.309 2.691-6 6-6s6 2.691 6 6v2c0 3.309-2.691 6-6 6zm0-12c-2.206 0-4 1.794-4 4v2c0 2.206 1.794 4 4 4s4-1.794 4-4v-2c0-2.206-1.794-4-4-4z"/><path d="m32 33c-8.822 0-16-7.178-16-16s7.178-16 16-16c2.225 0 4.378.448 6.4 1.332l-.8 1.832c-1.769-.772-3.653-1.164-5.6-1.164-7.72 0-14 6.28-14 14s6.28 14 14 14 14-6.28 14-14c0-1.602-.268-3.172-.796-4.667l1.886-.666c.603 1.709.91 3.503.91 5.333 0 8.822-7.178 16-16 16z"/><path d="m46 10h-2v-6h-2v6h-2v-7c0-.553.448-1 1-1h4c.552 0 1 .447 1 1z"/><path d="m60 40h-4c-.552 0-1-.447-1-1v-6c0-.553.448-1 1-1h4v2h-3v4h3z"/><path d="m41 6h4v2h-4z"/><path d="m7.5 37h-2.5c-.552 0-1-.447-1-1v-3c0-.553.448-1 1-1h2.5c1.378 0 2.5 1.121 2.5 2.5s-1.122 2.5-2.5 2.5zm-1.5-2h1.5c.276 0 .5-.225.5-.5s-.224-.5-.5-.5h-1.5z"/><path d="m7.5 40h-2.5c-.552 0-1-.447-1-1v-3c0-.553.448-1 1-1h2.5c1.378 0 2.5 1.121 2.5 2.5s-1.122 2.5-2.5 2.5zm-1.5-2h1.5c.276 0 .5-.225.5-.5s-.224-.5-.5-.5h-1.5z"/></svg>